<?xml version="1.0" ?><svg enable-background="new 0 0 32 32" version="1.1" viewBox="0 0 32 32" xml:space="preserve" xmlns="http://www.w3.org/2000/svg" xmlns:xlink="http://www.w3.org/1999/xlink"><g id="style_2_copy_6"><g><g><path d="M16,31.5C7.453,31.5,0.5,24.547,0.5,16S7.453,0.5,16,0.5S31.5,7.453,31.5,16S24.547,31.5,16,31.5z" fill="#FFFFFF"/></g><g><g><path d="M16,1c8.271,0,15,6.729,15,15s-6.729,15-15,15S1,24.271,1,16S7.729,1,16,1 M16,0C7.163,0,0,7.163,0,16      s7.163,16,16,16s16-7.163,16-16S24.837,0,16,0L16,0z" fill="#999999"/></g></g><g><g><path d="M16,3.007c7.165,0,12.993,5.829,12.993,12.993S23.164,28.993,16,28.993S3.007,23.164,3.007,16      S8.835,3.007,16,3.007" fill="#DBDBDB"/></g></g><g><path d="M16,3.006C8.836,3.006,3.006,8.836,3.006,16c0,3.605,1.478,6.871,3.858,9.227L25.227,6.864     C22.871,4.485,19.605,3.006,16,3.006z" fill="#E8E8E8"/></g></g><g><g><path d="M25.046,12.827c0,0-0.169-1.278-0.69-1.841c-0.661-0.738-1.401-0.742-1.741-0.784     c-2.432-0.188-6.079-0.188-6.079-0.188h-0.008c0,0-3.647,0-6.079,0.188c-0.339,0.042-1.079,0.046-1.741,0.784     c-0.52,0.563-0.69,1.841-0.69,1.841s-0.174,1.5-0.174,2.999v1.406c0,1.501,0.174,3,0.174,3s0.169,1.278,0.69,1.839     c0.662,0.738,1.529,0.715,1.916,0.792c1.39,0.142,5.908,0.186,5.908,0.186s3.651-0.006,6.083-0.193     c0.339-0.044,1.08-0.048,1.741-0.785c0.52-0.562,0.69-1.839,0.69-1.839s0.174-1.5,0.174-3v-1.406     C25.22,14.327,25.046,12.827,25.046,12.827z M14.362,19.791v-6.518l5.432,3.259L14.362,19.791z" fill="#F2F2F2"/></g></g><g><g><path d="M24.514,12.295c0,0-0.169-1.278-0.69-1.841c-0.661-0.738-1.401-0.742-1.741-0.784c-2.432-0.188-6.079-0.188-6.079-0.188     h-0.008c0,0-3.647,0-6.079,0.188c-0.339,0.042-1.079,0.046-1.741,0.784c-0.52,0.563-0.69,1.841-0.69,1.841     s-0.174,1.5-0.174,2.999V16.7c0,1.501,0.174,3,0.174,3s0.169,1.278,0.69,1.839c0.662,0.738,1.529,0.715,1.916,0.792     C11.482,22.474,16,22.518,16,22.518s3.651-0.006,6.083-0.193c0.339-0.044,1.08-0.048,1.741-0.785     c0.52-0.562,0.69-1.839,0.69-1.839s0.174-1.5,0.174-3v-1.406C24.688,13.795,24.514,12.295,24.514,12.295z M13.83,19.259v-6.518     L19.262,16L13.83,19.259z"/></g></g></g></svg>